<svg width="26" height="22" viewBox="0 0 26 22" fill="none" xmlns="http://www.w3.org/2000/svg">
<path d="M15.2833 7.66538C15.0661 7.66538 14.8896 7.4891 14.8896 7.27163V6.60249C14.8896 6.3853 15.0659 6.20874 15.2833 6.20874C15.5005 6.20874 15.6771 6.38502 15.6771 6.60249V7.27163C15.6771 7.4891 15.5005 7.66538 15.2833 7.66538Z" fill="#103E13"/>
<path d="M13.6279 7.66538C13.4108 7.66538 13.2342 7.4891 13.2342 7.27163V6.60249C13.2342 6.3853 13.4105 6.20874 13.6279 6.20874C13.8451 6.20874 14.0217 6.38502 14.0217 6.60249V7.27163C14.0214 7.4891 13.8454 7.66538 13.6279 7.66538Z" fill="#103E13"/>
<path d="M11.9727 7.66538C11.7555 7.66538 11.5789 7.4891 11.5789 7.27163V6.60249C11.5789 6.3853 11.7552 6.20874 11.9727 6.20874C12.1899 6.20874 12.3664 6.38502 12.3664 6.60249V7.27163C12.3664 7.4891 12.1901 7.66538 11.9727 7.66538Z" fill="#103E13"/>
<path d="M15.2833 10.4019C15.0661 10.4019 14.8896 10.2256 14.8896 10.0082V9.3393C14.8896 9.12212 15.0659 8.94556 15.2833 8.94556C15.5005 8.94556 15.6771 9.12183 15.6771 9.3393V10.0082C15.6771 10.2256 15.5005 10.4019 15.2833 10.4019Z" fill="#103E13"/>
<path d="M13.6279 10.4019C13.4108 10.4019 13.2342 10.2256 13.2342 10.0082V9.3393C13.2342 9.12212 13.4105 8.94556 13.6279 8.94556C13.8451 8.94556 14.0217 9.12183 14.0217 9.3393V10.0082C14.0214 10.2256 13.8454 10.4019 13.6279 10.4019Z" fill="#103E13"/>
<path d="M11.9727 10.4019C11.7555 10.4019 11.5789 10.2256 11.5789 10.0082V9.3393C11.5789 9.12212 11.7552 8.94556 11.9727 8.94556C12.1899 8.94556 12.3664 9.12183 12.3664 9.3393V10.0082C12.3664 10.2256 12.1901 10.4019 11.9727 10.4019Z" fill="#103E13"/>
<path d="M15.2833 13.1383C15.0661 13.1383 14.8896 12.962 14.8896 12.7445V12.0754C14.8896 11.8582 15.0659 11.6816 15.2833 11.6816C15.5005 11.6816 15.6771 11.8579 15.6771 12.0754V12.7445C15.6771 12.962 15.5005 13.1383 15.2833 13.1383Z" fill="#103E13"/>
<path d="M13.6279 13.1383C13.4108 13.1383 13.2342 12.962 13.2342 12.7445V12.0754C13.2342 11.8582 13.4105 11.6816 13.6279 11.6816C13.8451 11.6816 14.0217 11.8579 14.0217 12.0754V12.7445C14.0214 12.962 13.8454 13.1383 13.6279 13.1383Z" fill="#103E13"/>
<path d="M11.9727 13.1383C11.7555 13.1383 11.5789 12.962 11.5789 12.7445V12.0754C11.5789 11.8582 11.7552 11.6816 11.9727 11.6816C12.1899 11.6816 12.3664 11.8579 12.3664 12.0754V12.7445C12.3664 12.962 12.1901 13.1383 11.9727 13.1383Z" fill="#103E13"/>
<path d="M15.2833 15.8741C15.0661 15.8741 14.8896 15.6978 14.8896 15.4804V14.8112C14.8896 14.594 15.0659 14.4175 15.2833 14.4175C15.5005 14.4175 15.6771 14.5938 15.6771 14.8112V15.4804C15.6771 15.6978 15.5005 15.8741 15.2833 15.8741Z" fill="#103E13"/>
<path d="M13.6279 15.8741C13.4108 15.8741 13.2342 15.6978 13.2342 15.4804V14.8112C13.2342 14.594 13.4105 14.4175 13.6279 14.4175C13.8451 14.4175 14.0217 14.5938 14.0217 14.8112V15.4804C14.0214 15.6978 13.8454 15.8741 13.6279 15.8741Z" fill="#103E13"/>
<path d="M11.9727 15.8741C11.7555 15.8741 11.5789 15.6978 11.5789 15.4804V14.8112C11.5789 14.594 11.7552 14.4175 11.9727 14.4175C12.1899 14.4175 12.3664 14.5938 12.3664 14.8112V15.4804C12.3664 15.6978 12.1901 15.8741 11.9727 15.8741Z" fill="#103E13"/>
<path d="M15.2833 18.6107C15.0661 18.6107 14.8896 18.4344 14.8896 18.2169V17.548C14.8896 17.3309 15.0659 17.1543 15.2833 17.1543C15.5005 17.1543 15.6771 17.3306 15.6771 17.548V18.2169C15.6771 18.4341 15.5005 18.6107 15.2833 18.6107Z" fill="#103E13"/>
<path d="M13.6279 18.6107C13.4108 18.6107 13.2342 18.4344 13.2342 18.2169V17.548C13.2342 17.3309 13.4105 17.1543 13.6279 17.1543C13.8451 17.1543 14.0217 17.3306 14.0217 17.548V18.2169C14.0214 18.4341 13.8454 18.6107 13.6279 18.6107Z" fill="#103E13"/>
<path d="M11.9727 18.6107C11.7555 18.6107 11.5789 18.4344 11.5789 18.2169L11.5792 17.548C11.5792 17.3309 11.7555 17.1543 11.9729 17.1543C12.1901 17.1543 12.3667 17.3306 12.3667 17.548V18.2169C12.3664 18.4341 12.1901 18.6107 11.9727 18.6107Z" fill="#103E13"/>
<path d="M0.724451 21.3337C0.724451 21.5509 0.90073 21.7275 1.1182 21.7275H25.0962C25.3134 21.7275 25.49 21.5512 25.49 21.3337C25.49 21.1165 25.3137 20.94 25.0962 20.94H24.3684V9.63492C24.3684 9.41773 24.1921 9.24117 23.9746 9.24117L17.5459 9.24144V1.09108C17.5459 0.95324 17.474 0.825836 17.3564 0.75444C17.2392 0.682777 17.0926 0.678384 16.9707 0.741809L9.66169 4.54721C9.53127 4.61503 9.45 4.74958 9.45 4.89648V12.0157H2.3765C2.15932 12.0157 1.98276 12.1919 1.98276 12.4094V20.9401H1.11732C0.900133 20.9398 0.724121 21.1161 0.724121 21.3335L0.724451 21.3337ZM17.546 15.2049H23.5813V20.9403L17.546 20.94V15.2049ZM17.546 12.4687H23.5813V14.4177L17.546 14.4174V12.4687ZM17.546 10.0285H23.5813V11.6818H17.546V10.0285ZM10.2371 5.13556L16.7583 1.7401V20.9397H10.2371V5.13556ZM4.71669 17.7952C4.71669 16.978 5.36414 16.313 6.16014 16.313C6.95613 16.313 7.60387 16.9777 7.60387 17.7952V20.9402H4.71669V17.7952ZM2.77023 12.803H9.44988V20.94H8.39135V17.795C8.39135 16.5438 7.39081 15.5256 6.16014 15.5256C4.93003 15.5256 3.92949 16.5435 3.92949 17.795V20.94H2.77023V12.803Z" fill="#103E13"/>
</svg>
